<?xml version="1.0" standalone="no"?>
<!DOCTYPE svg PUBLIC "-//W3C//DTD SVG 20010904//EN"
 "http://www.w3.org/TR/2001/REC-SVG-20010904/DTD/svg10.dtd">
<svg version="1.0" xmlns="http://www.w3.org/2000/svg"
 width="1200.000000pt" height="1200.000000pt" viewBox="0 0 1200.000000 1200.000000"
 preserveAspectRatio="xMidYMid meet">
<metadata>
Created by potrace 1.11, written by Peter Selinger 2001-2013
</metadata>
<g transform="translate(0.000000,1200.000000) scale(0.100000,-0.100000)"
fill="#000000" stroke="none">
<path d="M2870 8972 c-42 -6 -86 -47 -97 -89 -5 -23 -9 -978 -8 -2378 0 -1893
3 -2346 13 -2371 8 -18 30 -40 51 -52 l39 -22 1501 0 1501 0 -2 -387 -3 -388
-596 -1 c-553 -1 -598 -2 -626 -19 -95 -56 -79 -206 25 -234 15 -4 617 -7
1337 -6 1434 0 1356 -3 1395 60 35 57 17 155 -32 171 -10 3 -18 9 -18 13 0 11
22 11 -622 13 l-598 1 0 389 0 388 1501 0 c1656 0 1544 -4 1584 63 19 31 20
75 20 2397 -1 2256 -1 2366 -18 2392 -10 15 -30 35 -45 45 -26 17 -163 18
-3152 18 -1719 0 -3136 -2 -3150 -3z m6105 -2454 c0 -1458 -3 -2198 -10 -2199
-13 -1 -5893 -1 -5920 0 -20 1 -20 8 -20 2199 l0 2199 2975 -1 2975 -1 0
-2197z"/>
<path d="M6195 7662 c-16 -11 -35 -25 -42 -33 -9 -11 -109 -383 -128 -477 -2
-9 -31 -127 -65 -262 -34 -135 -63 -252 -65 -260 -2 -8 -22 -89 -45 -180 -23
-91 -43 -172 -45 -180 -2 -8 -45 -179 -95 -380 -51 -201 -94 -380 -96 -399 -6
-61 44 -126 106 -138 77 -15 143 52 165 166 2 9 17 70 33 136 17 66 33 131 36
145 3 14 42 169 86 345 45 176 83 329 86 340 2 11 11 47 19 80 9 33 22 87 29
120 8 33 20 81 27 105 7 25 13 50 15 55 1 6 27 111 59 235 31 124 58 235 60
247 2 11 8 36 13 55 17 53 31 110 37 150 17 106 -99 185 -190 130z"/>
<path d="M4914 7153 c-36 -19 -560 -538 -580 -575 -16 -31 -18 -76 -5 -112 13
-33 555 -574 589 -587 69 -26 150 17 169 91 18 68 6 85 -231 322 l-225 224
210 210 c115 115 219 224 231 243 65 104 -50 238 -158 184z"/>
<path d="M7000 7158 c-43 -12 -76 -41 -86 -76 -7 -26 -8 -37 -5 -84 1 -14 82
-102 230 -252 l230 -231 -221 -220 c-122 -121 -226 -233 -233 -248 -27 -66 22
-160 91 -173 72 -13 82 -6 379 292 233 233 285 290 290 318 15 77 9 85 -279
374 -149 151 -284 280 -299 288 -39 21 -56 23 -97 12z"/>
</g>
</svg>
